<?xml version="1.0" standalone="no"?>
<!DOCTYPE svg PUBLIC "-//W3C//DTD SVG 20010904//EN"
 "http://www.w3.org/TR/2001/REC-SVG-20010904/DTD/svg10.dtd">
<svg version="1.0" xmlns="http://www.w3.org/2000/svg"
 width="512.000000pt" height="512.000000pt" viewBox="0 0 512.000000 512.000000"
 preserveAspectRatio="xMidYMid meet">

<g transform="translate(0.000000,512.000000) scale(0.100000,-0.100000)"
fill="#000000" stroke="none">
<path d="M1532 4557 c-14 -15 -22 -36 -22 -57 0 -32 61 -96 952 -987 l953
-953 -953 -953 c-905 -906 -952 -954 -952 -988 0 -46 33 -79 81 -79 32 0 96
62 1026 992 941 940 993 995 993 1028 0 33 -52 88 -993 1028 -945 945 -994
992 -1028 992 -24 0 -42 -7 -57 -23z"/>
</g>
</svg>
