<?xml version="1.0" standalone="no"?>
<!DOCTYPE svg PUBLIC "-//W3C//DTD SVG 20010904//EN"
 "http://www.w3.org/TR/2001/REC-SVG-20010904/DTD/svg10.dtd">
<svg version="1.0" xmlns="http://www.w3.org/2000/svg"
 width="512.000000pt" height="512.000000pt" viewBox="0 0 512.000000 512.000000"
 preserveAspectRatio="xMidYMid meet">

<g transform="translate(0.000000,512.000000) scale(0.100000,-0.100000)"
fill="#000000" stroke="none">
<path d="M2503 3587 c-938 -937 -993 -994 -993 -1027 0 -33 55 -90 993 -1027
946 -946 994 -993 1028 -993 46 0 79 33 79 80 0 32 -61 96 -952 987 l-953 953
953 953 c905 906 952 954 952 988 0 46 -33 79 -81 79 -32 0 -96 -62 -1026
-993z"/>
</g>
</svg>
